<svg id="Capa_1" height="35" viewBox="0 0 35 37" fill="#fff" width="35" xmlns="http://www.w3.org/2000/svg">
 <g id="Layer_x0020_1">
  <path class="fil0" d="M3.68 13.91c0.68,0.26 8.17,0.32 8.74,0.01 0.33,-0.27 0.31,-0.4 0.31,-1 0,-0.45 -0.01,-0.91 -0.01,-1.36 0,-4.83 0.8,-4.04 -4.36,-4.04 -0.94,0 -1.88,0 -2.82,0 -1.07,0 -1.94,-0.3 -2.01,0.85 -0.06,0.99 -0.1,4.88 0.15,5.54zm1.33 -11.59c-2.03,0.5 -1.89,3.26 -0.11,3.75 0.51,0.15 5.75,0.15 6.34,0.03 1.89,-0.39 1.92,-3.27 0.1,-3.77 -0.51,-0.14 -5.8,-0.15 -6.33,-0.01zm11.89 0c-2.01,0.49 -1.95,3.25 -0.11,3.76 0.51,0.14 5.75,0.14 6.31,0.02 1.94,-0.4 1.91,-3.27 0.12,-3.76 -0.5,-0.15 -5.8,-0.16 -6.32,-0.02zm11.88 0c-2.04,0.47 -1.89,3.31 -0.12,3.76 0.53,0.14 5.8,0.13 6.33,0.02 1.91,-0.4 1.95,-3.27 0.12,-3.76 -0.55,-0.15 -5.75,-0.16 -6.33,-0.02zm-25.24 29.95l0 4.53c0,0.94 0.27,0.98 1.14,0.98l6.98 0c0.83,0 1.06,-0.15 1.06,-0.98l0 -4.53c0,-0.89 -0.14,-1.02 -1.06,-1.02l-7.1 0c-0.9,0 -1.02,0.13 -1.02,1.02zm0 -15.81l0 4.54c0,0.93 0.29,0.97 1.14,0.97l6.98 0c0.82,0 1.06,-0.15 1.06,-0.97l0 -4.54c0,-0.96 -0.2,-1.03 -1.18,-1.03l-6.98 0c-0.89,0 -1.02,0.15 -1.02,1.03zm23.73 7.85l0 4.65c0,0.82 0.22,0.91 1.06,0.91 2.1,0 6.1,0.13 7.99,-0.12 0.33,-1.78 0.14,-3.64 0.14,-5.44 0,-0.85 -0.23,-0.97 -1.03,-0.97l-7.1 0c-0.82,0 -1.06,0.14 -1.06,0.97zm0 -7.85l0 4.54c0,0.82 0.24,0.97 1.06,0.97l7.1 0c0.8,0 1.03,-0.13 1.03,-0.97 0,-1.77 0.11,-3.68 -0.12,-5.42 -0.85,-0.3 -6.72,-0.15 -8.01,-0.15 -0.92,0 -1.06,0.15 -1.06,1.03zm-23.6 13.26c0.61,0.24 8.26,0.27 8.76,0.01 0.45,-0.38 0.29,-1.54 0.29,-2.36 0,-4.82 0.8,-4.03 -4.36,-4.03 -0.94,0 -1.88,0 -2.82,0 -1.06,0 -1.93,-0.31 -2.01,0.83 -0.06,0.95 -0.08,4.94 0.14,5.55zm11.73 -13.26l0 4.54c0,0.84 0.24,0.97 1.04,0.97l7.11 0c0.8,0 1.04,-0.13 1.04,-0.97 0,-1.79 0.12,-3.67 -0.12,-5.43 -1.97,-0.37 -5.84,-0.15 -8.03,-0.14 -0.9,0 -1.04,0.13 -1.04,1.03zm0.16 -2.54c0.67,0.24 8.2,0.24 8.88,0 0.28,-0.73 0.19,-4.35 0.16,-5.43 -0.05,-1.22 -0.68,-0.97 -1.79,-0.97l-5.51 0c-1.14,0 -1.86,-0.29 -1.91,0.97 -0.03,1.08 -0.11,4.7 0.17,5.43zm12.02 0c0.56,0.31 8.06,0.25 8.73,-0.01 0.26,-0.68 0.19,-4.39 0.15,-5.42 -0.03,-1.26 -0.74,-0.97 -1.88,-0.97l-5.64 0c-1.18,-0.01 -1.66,-0.19 -1.67,1.09l0 4.19c-0.01,0.64 -0.06,0.83 0.31,1.12z"/>
 </g>
</svg>
